<svg width="14" height="14" viewBox="0 0 14 14" fill="none" xmlns="http://www.w3.org/2000/svg">
<path fill-rule="evenodd" clip-rule="evenodd" d="M10.9292 9.78174C10.7665 10.2421 10.1199 10.6235 9.60415 10.7349C9.25113 10.8092 8.79077 10.869 7.23962 10.2257C5.49745 9.50412 3.07825 6.93332 3.07825 5.22219C3.07825 4.35144 3.58045 3.33694 4.45863 3.33694C4.88118 3.33694 4.97433 3.34493 5.11338 3.67905C5.27605 4.0719 5.67295 5.03991 5.7202 5.13914C5.91528 5.54616 5.52175 5.78439 5.23622 6.13944C5.1451 6.24609 5.04183 6.36155 5.15725 6.56C5.272 6.7544 5.6689 7.40081 6.2521 7.91989C7.0054 8.59151 7.61627 8.80567 7.83497 8.89679C7.99765 8.96429 8.19205 8.94887 8.31085 8.82197C8.46138 8.6593 8.64835 8.38919 8.8387 8.12324C8.97302 7.93222 9.14381 7.90842 9.32268 7.97592C9.44351 8.01777 10.9791 8.7313 11.0439 8.84537C11.0918 8.9284 11.0919 9.32139 10.9292 9.78174ZM7.00135 0.25H6.99797C3.2767 0.25 0.25 3.27738 0.25 7C0.25 8.47622 0.72588 9.84503 1.5352 10.9554L0.694153 13.4646L3.28818 12.635C4.38891 13.3646 5.68076 13.7525 7.00135 13.75C10.7226 13.75 13.75 10.7226 13.75 7C13.75 3.27738 10.7226 0.25 7.00135 0.25Z" fill="#F6F7E9"/>
</svg>
