<svg width="16" height="16" viewBox="0 0 16 16" fill="none" xmlns="http://www.w3.org/2000/svg">
<path d="M8 6.14C7.63213 6.14 7.27251 6.24909 6.96664 6.45347C6.66076 6.65785 6.42236 6.94834 6.28158 7.28821C6.1408 7.62808 6.10397 8.00206 6.17574 8.36287C6.24751 8.72367 6.42466 9.05509 6.68478 9.31522C6.94491 9.57534 7.27633 9.75249 7.63713 9.82426C7.99794 9.89603 8.37192 9.85919 8.71179 9.71842C9.05166 9.57764 9.34215 9.33924 9.54653 9.03336C9.75091 8.72749 9.86 8.36787 9.86 8C9.86 7.75574 9.81189 7.51387 9.71842 7.28821C9.62494 7.06254 9.48794 6.8575 9.31522 6.68478C9.1425 6.51206 8.93746 6.37506 8.71179 6.28158C8.48613 6.18811 8.24426 6.14 8 6.14ZM15.4475 4.3025C15.4436 3.72332 15.3369 3.14943 15.1325 2.6075C14.982 2.21094 14.749 1.85082 14.4491 1.55089C14.1492 1.25096 13.7891 1.01804 13.3925 0.8675C12.8506 0.663098 12.2767 0.556446 11.6975 0.5525C10.73 0.5 10.445 0.5 8 0.5C5.555 0.5 5.27 0.5 4.3025 0.5525C3.72332 0.556446 3.14943 0.663098 2.6075 0.8675C2.21094 1.01804 1.85082 1.25096 1.55089 1.55089C1.25096 1.85082 1.01804 2.21094 0.8675 2.6075C0.663098 3.14943 0.556446 3.72332 0.5525 4.3025C0.5 5.27 0.5 5.555 0.5 8C0.5 10.445 0.5 10.73 0.5525 11.6975C0.560573 12.2787 0.667081 12.8544 0.8675 13.4C1.01737 13.7947 1.2501 14.1528 1.55 14.45C1.84865 14.7517 2.20954 14.9846 2.6075 15.1325C3.14943 15.3369 3.72332 15.4436 4.3025 15.4475C5.27 15.5 5.555 15.5 8 15.5C10.445 15.5 10.73 15.5 11.6975 15.4475C12.2767 15.4436 12.8506 15.3369 13.3925 15.1325C13.7905 14.9846 14.1514 14.7517 14.45 14.45C14.7499 14.1528 14.9826 13.7947 15.1325 13.4C15.3367 12.8554 15.4433 12.2791 15.4475 11.6975C15.5 10.73 15.5 10.445 15.5 8C15.5 5.555 15.5 5.27 15.4475 4.3025ZM13.5425 10.3025C13.5184 10.7653 13.4197 11.2212 13.25 11.6525C13.1044 12.0123 12.8879 12.3391 12.6135 12.6135C12.3391 12.8879 12.0123 13.1044 11.6525 13.25C11.2171 13.4102 10.7587 13.4988 10.295 13.5125C9.7025 13.5125 9.545 13.5125 8 13.5125C6.455 13.5125 6.2975 13.5125 5.705 13.5125C5.2413 13.4988 4.78287 13.4102 4.3475 13.25C3.97558 13.1118 3.63971 12.8913 3.365 12.605C3.09325 12.3359 2.88338 12.0109 2.75 11.6525C2.58917 11.2176 2.50295 10.7586 2.495 10.295C2.495 9.7025 2.495 9.545 2.495 8C2.495 6.455 2.495 6.2975 2.495 5.705C2.50295 5.24137 2.58917 4.78241 2.75 4.3475C2.88821 3.97558 3.10871 3.63971 3.395 3.365C3.66525 3.09472 3.98995 2.88507 4.3475 2.75C4.78287 2.5898 5.2413 2.50116 5.705 2.4875C6.2975 2.4875 6.455 2.4875 8 2.4875C9.545 2.4875 9.7025 2.4875 10.295 2.4875C10.7587 2.50116 11.2171 2.5898 11.6525 2.75C12.0244 2.88821 12.3603 3.10871 12.635 3.395C12.9068 3.66406 13.1166 3.9891 13.25 4.3475C13.4102 4.78287 13.4988 5.2413 13.5125 5.705C13.5125 6.2975 13.5125 6.455 13.5125 8C13.5125 9.545 13.565 9.7025 13.5425 10.295V10.3025ZM12.3425 4.7225C12.2532 4.48024 12.1124 4.26023 11.9298 4.07766C11.7473 3.89509 11.5273 3.7543 11.285 3.665C10.9524 3.5497 10.602 3.49384 10.25 3.5C9.665 3.5 9.5 3.5 8 3.5C6.5 3.5 6.335 3.5 5.75 3.5C5.3962 3.50346 5.0458 3.56948 4.715 3.695C4.47645 3.78024 4.25877 3.91528 4.07644 4.09115C3.89411 4.26702 3.7513 4.47968 3.6575 4.715C3.54858 5.04903 3.49537 5.3987 3.5 5.75C3.5 6.335 3.5 6.5 3.5 8C3.5 9.5 3.5 9.665 3.5 10.25C3.50744 10.6034 3.57333 10.9531 3.695 11.285C3.7843 11.5273 3.92509 11.7473 4.10766 11.9298C4.29023 12.1124 4.51024 12.2532 4.7525 12.3425C5.0725 12.4602 5.40924 12.526 5.75 12.5375C6.335 12.5375 6.5 12.5375 8 12.5375C9.5 12.5375 9.665 12.5375 10.25 12.5375C10.6038 12.534 10.9542 12.468 11.285 12.3425C11.5273 12.2532 11.7473 12.1124 11.9298 11.9298C12.1124 11.7473 12.2532 11.5273 12.3425 11.285C12.468 10.9542 12.534 10.6038 12.5375 10.25C12.5375 9.665 12.5375 9.5 12.5375 8C12.5375 6.5 12.5375 6.335 12.5375 5.75C12.5377 5.39585 12.4716 5.04479 12.3425 4.715V4.7225ZM8 10.865C7.62412 10.865 7.25192 10.7908 6.90475 10.6468C6.55757 10.5027 6.24223 10.2915 5.97679 10.0254C5.71134 9.75927 5.50102 9.44338 5.35786 9.09582C5.2147 8.74827 5.14151 8.37588 5.1425 8C5.1425 7.43304 5.31072 6.87882 5.62586 6.40751C5.94101 5.93621 6.3889 5.569 6.91285 5.35238C7.4368 5.13575 8.01324 5.07946 8.5692 5.19061C9.12516 5.30177 9.63564 5.57538 10.036 5.97681C10.4364 6.37823 10.7087 6.88943 10.8184 7.44568C10.9281 8.00193 10.8703 8.57822 10.6523 9.10159C10.4343 9.62497 10.0659 10.0719 9.59375 10.3858C9.12161 10.6997 8.56696 10.8665 8 10.865ZM11 5.6975C10.8342 5.67995 10.6808 5.60167 10.5693 5.47773C10.4578 5.35379 10.3961 5.19297 10.3961 5.02625C10.3961 4.85953 10.4578 4.69871 10.5693 4.57477C10.6808 4.45083 10.8342 4.37255 11 4.355C11.1658 4.37255 11.3192 4.45083 11.4307 4.57477C11.5422 4.69871 11.6039 4.85953 11.6039 5.02625C11.6039 5.19297 11.5422 5.35379 11.4307 5.47773C11.3192 5.60167 11.1658 5.67995 11 5.6975Z" fill="#F6F7E9"/>
</svg>
