<svg width="14" height="12" viewBox="0 0 14 12" fill="none" xmlns="http://www.w3.org/2000/svg">
<path d="M10.3356 3.96809C10.7496 3.55409 11.1606 2.58809 9.43556 3.76109C7.82415 4.8701 6.20182 5.96315 4.56881 7.04009C4.32014 7.15254 4.05131 7.21356 3.77846 7.21948C3.50561 7.22541 3.23438 7.17613 2.98106 7.07459C1.94606 6.76409 0.73781 6.35009 0.73781 6.35009C0.73781 6.35009 -0.0871897 5.83184 1.32506 5.27984C1.32506 5.27984 7.29581 2.82959 9.36656 1.96634C10.1601 1.62134 12.8518 0.517341 12.8518 0.517341C12.8518 0.517341 14.0946 0.0335907 13.9911 1.20734C13.9566 1.69034 13.6806 3.38234 13.4046 5.21084C12.9898 7.79909 12.5413 10.6296 12.5413 10.6296C12.5413 10.6296 12.4723 11.4231 11.8858 11.5611C11.258 11.5505 10.6514 11.3321 10.1608 10.9401C10.0228 10.8366 7.57256 9.28334 6.67481 8.52434C6.58349 8.46248 6.5093 8.37852 6.45914 8.28028C6.40898 8.18205 6.38448 8.07272 6.38792 7.96247C6.39137 7.85222 6.42264 7.74463 6.47883 7.64971C6.53502 7.5548 6.61431 7.47563 6.70931 7.41959C7.94062 6.29303 9.14961 5.14231 10.3356 3.96809Z" fill="#F6F7E9"/>
</svg>
