<svg width="16" height="14" viewBox="0 0 16 14" fill="none" xmlns="http://www.w3.org/2000/svg">
<path fill-rule="evenodd" clip-rule="evenodd" d="M-8.74228e-08 1C-3.91405e-08 0.447715 0.447715 3.91405e-08 1 8.74228e-08L15 1.31134e-06C15.5523 1.35962e-06 16 0.447717 16 1C16 1.55229 15.5523 2 15 2L1 2C0.447715 2 -1.35705e-07 1.55228 -8.74228e-08 1Z" fill="#F6F7E9"/>
<path fill-rule="evenodd" clip-rule="evenodd" d="M8.74228e-08 5C3.91405e-08 4.44772 0.447715 4 1 4L11 4C11.5523 4 12 4.44771 12 5C12 5.55228 11.5523 6 11 6L1 6C0.447715 6 1.35705e-07 5.55228 8.74228e-08 5Z" fill="#F6F7E9"/>
<path fill-rule="evenodd" clip-rule="evenodd" d="M-8.74228e-08 9C-3.91405e-08 8.44772 0.447715 8 1 8L15 8C15.5523 8 16 8.44772 16 9C16 9.55229 15.5523 10 15 10L1 10C0.447715 10 -1.35705e-07 9.55228 -8.74228e-08 9Z" fill="#F6F7E9"/>
<path fill-rule="evenodd" clip-rule="evenodd" d="M8.74228e-08 13C3.91405e-08 12.4477 0.447715 12 1 12L11 12C11.5523 12 12 12.4477 12 13C12 13.5523 11.5523 14 11 14L1 14C0.447715 14 1.35705e-07 13.5523 8.74228e-08 13Z" fill="#F6F7E9"/>
</svg>
