<svg width="36" height="36" viewBox="0 0 36 36" fill="none" xmlns="http://www.w3.org/2000/svg">
<rect width="36" height="36" rx="8" fill="#EA5555"/>
<path d="M26.1598 11C25.0998 9.93721 23.6946 9.28854 22.1981 9.17117C20.7017 9.0538 19.2126 9.47546 17.9998 10.36C16.7274 9.41364 15.1438 8.98451 13.5677 9.15903C11.9916 9.33356 10.5402 10.0988 9.50576 11.3006C8.47129 12.5024 7.93061 14.0515 7.99259 15.636C8.05457 17.2205 8.71461 18.7227 9.83979 19.84L16.0498 26.06C16.5698 26.5718 17.2702 26.8586 17.9998 26.8586C18.7294 26.8586 19.4298 26.5718 19.9498 26.06L26.1598 19.84C27.3274 18.6653 27.9827 17.0763 27.9827 15.42C27.9827 13.7637 27.3274 12.1747 26.1598 11Z" fill="#F6F7E9"/>
</svg>
